<svg width="25" height="20" viewBox="0 0 25 20" fill="none" xmlns="http://www.w3.org/2000/svg">
<path d="M17.0693 6.68488C17.9282 8.01755 19.0701 9.15145 20.418 10.0023L14.9395 15.4818C14.5145 15.9067 14.3021 16.1194 14.041 16.2591C13.7799 16.3988 13.485 16.4576 12.8955 16.5755L10.6523 17.0247C10.3198 17.0912 10.1532 17.1241 10.0586 17.0296C9.96399 16.935 9.99695 16.7685 10.0635 16.4359L10.5127 14.1927C10.6306 13.6033 10.6894 13.3083 10.8291 13.0472C10.9688 12.7861 11.1815 12.5737 11.6064 12.1487L17.0693 6.68488ZM20.3809 3.40167C21.093 2.86584 22.074 2.8657 22.7861 3.40167C22.8983 3.48612 23.0155 3.60369 23.25 3.8382C23.4845 4.07265 23.6021 4.18987 23.6865 4.30206C24.2224 5.01417 24.2223 5.99521 23.6865 6.70734C23.6021 6.81952 23.4844 6.93679 23.25 7.1712L21.876 8.54425C20.477 7.75815 19.3203 6.61109 18.5234 5.23077L19.917 3.8382C20.1514 3.60378 20.2687 3.48611 20.3809 3.40167Z" fill="#222222"/>
</svg>
