<?xml version="1.0" encoding="UTF-8"?>
<svg width="24" height="24" viewBox="0 0 24 24" fill="none"
     xmlns="http://www.w3.org/2000/svg">
    <path d="M3 4C3 2.89543 3.89543 2 5 2H13C14.1046 2 15 2.89543 15 4V8H13V4H5V20H13V16H15V20C15 21.1046 14.1046 22 13 22H5C3.89543 22 3 21.1046 3 20V4Z" fill="currentColor"/>
    <path d="M20.2929 11.2929C20.6834 11.6834 20.6834 12.3166 20.2929 12.7071L16.2929 16.7071L14.8787 15.2929L17.1716 13H9V11H17.1716L14.8787 8.70711L16.2929 7.29289L20.2929 11.2929Z" fill="currentColor"/>
</svg>