<svg width="27" height="27" viewBox="0 0 27 27" fill="none" xmlns="http://www.w3.org/2000/svg">
<path d="M3.375 23.9143H8.4375V16.2C8.4375 15.7629 8.5995 15.3967 8.9235 15.1015C9.2475 14.8063 9.648 14.6582 10.125 14.6571H16.875C17.3531 14.6571 17.7542 14.8053 18.0782 15.1015C18.4022 15.3977 18.5636 15.7639 18.5625 16.2V23.9143H23.625V10.0286L13.5 3.08571L3.375 10.0286V23.9143ZM0 23.9143V10.0286C0 9.54 0.119812 9.07714 0.359437 8.64C0.599062 8.20286 0.92925 7.84285 1.35 7.56L11.475 0.617143C12.0656 0.205714 12.7406 0 13.5 0C14.2594 0 14.9344 0.205714 15.525 0.617143L25.65 7.56C26.0719 7.84285 26.4026 8.20286 26.6422 8.64C26.8819 9.07714 27.0011 9.54 27 10.0286V23.9143C27 24.7629 26.6692 25.4895 26.0077 26.0943C25.3462 26.6991 24.552 27.001 23.625 27H16.875C16.3969 27 15.9964 26.8519 15.6735 26.5557C15.3506 26.2594 15.1886 25.8933 15.1875 25.4571V17.7429H11.8125V25.4571C11.8125 25.8943 11.6505 26.261 11.3265 26.5572C11.0025 26.8534 10.602 27.001 10.125 27H3.375C2.44687 27 1.65262 26.6981 0.992249 26.0943C0.331875 25.4906 0.001125 24.7639 0 23.9143Z" fill="black" fill-opacity="0.4"/>
</svg>
