<svg width="60" height="60" viewBox="0 0 60 60" fill="none" xmlns="http://www.w3.org/2000/svg">
<g clip-path="url(#clip0_1_274)">
<g opacity="0.4" clip-path="url(#clip1_1_274)">
<circle cx="30" cy="30" r="30" fill="#D9D9D9"/>
<path d="M30 10C32.6522 10 35.1957 11.0536 37.0711 12.9289C38.9464 14.8043 40 17.3478 40 20C40 22.6522 38.9464 25.1957 37.0711 27.0711C35.1957 28.9464 32.6522 30 30 30C27.3478 30 24.8043 28.9464 22.9289 27.0711C21.0536 25.1957 20 22.6522 20 20C20 17.3478 21.0536 14.8043 22.9289 12.9289C24.8043 11.0536 27.3478 10 30 10ZM30 35C41.05 35 50 39.475 50 45V50H10V45C10 39.475 18.95 35 30 35Z" fill="black"/>
</g>
</g>
<defs>
<clipPath id="clip0_1_274">
<rect width="60" height="60" fill="white"/>
</clipPath>
<clipPath id="clip1_1_274">
<rect width="60" height="60" fill="white"/>
</clipPath>
</defs>
</svg>
