<svg width="20" height="22" viewBox="0 0 20 22" fill="none" xmlns="http://www.w3.org/2000/svg">
<path fill-rule="evenodd" clip-rule="evenodd" d="M11.2485 2.25H8.2485C8.04959 2.25 7.85882 2.32902 7.71817 2.46967C7.57752 2.61032 7.4985 2.80109 7.4985 3V3.75H11.9985V3C11.9985 2.80109 11.9195 2.61032 11.7788 2.46967C11.6382 2.32902 11.4474 2.25 11.2485 2.25ZM14.2485 3.75V3C14.2485 2.20435 13.9324 1.44129 13.3698 0.87868C12.8072 0.316071 12.0441 0 11.2485 0H8.2485C7.45285 0 6.68979 0.316071 6.12718 0.87868C5.56457 1.44129 5.2485 2.20435 5.2485 3V3.75H1.125C0.826631 3.75 0.540483 3.86853 0.329505 4.0795C0.118526 4.29048 0 4.57663 0 4.875C0 5.17337 0.118526 5.45952 0.329505 5.6705C0.540483 5.88147 0.826631 6 1.125 6H1.593L2.0685 17.4375C2.11688 18.5977 2.61185 19.6942 3.44994 20.4979C4.28802 21.3016 5.40433 21.7502 6.5655 21.75H12.933C14.0939 21.7498 15.2098 21.301 16.0476 20.4974C16.8854 19.6937 17.3801 18.5974 17.4285 17.4375L17.9055 6H18.3735C18.6719 6 18.958 5.88147 19.169 5.6705C19.38 5.45952 19.4985 5.17337 19.4985 4.875C19.4985 4.57663 19.38 4.29048 19.169 4.0795C18.958 3.86853 18.6719 3.75 18.3735 3.75H14.2485ZM15.6525 6H3.8445L4.317 17.343C4.341 17.9232 4.58841 18.4717 5.00747 18.8737C5.42653 19.2757 5.98479 19.5001 6.5655 19.5H12.933C13.5134 19.4997 14.0713 19.2751 14.4901 18.8732C14.9088 18.4712 15.156 17.923 15.18 17.343L15.6525 6ZM6.3735 9V16.5C6.3735 16.7984 6.49203 17.0845 6.703 17.2955C6.91398 17.5065 7.20013 17.625 7.4985 17.625C7.79687 17.625 8.08302 17.5065 8.29399 17.2955C8.50497 17.0845 8.6235 16.7984 8.6235 16.5V9C8.6235 8.70163 8.50497 8.41548 8.29399 8.2045C8.08302 7.99353 7.79687 7.875 7.4985 7.875C7.20013 7.875 6.91398 7.99353 6.703 8.2045C6.49203 8.41548 6.3735 8.70163 6.3735 9ZM11.9985 7.875C12.2969 7.875 12.583 7.99353 12.794 8.2045C13.005 8.41548 13.1235 8.70163 13.1235 9V16.5C13.1235 16.7984 13.005 17.0845 12.794 17.2955C12.583 17.5065 12.2969 17.625 11.9985 17.625C11.7001 17.625 11.414 17.5065 11.203 17.2955C10.992 17.0845 10.8735 16.7984 10.8735 16.5V9C10.8735 8.70163 10.992 8.41548 11.203 8.2045C11.414 7.99353 11.7001 7.875 11.9985 7.875Z" fill="black"/>
</svg>
