<svg width="46" height="46" viewBox="0 0 46 46" fill="none" xmlns="http://www.w3.org/2000/svg">
<g opacity="0.4">
<path d="M22.9998 7.66666C25.0332 7.66666 26.9832 8.4744 28.421 9.91218C29.8588 11.35 30.6665 13.3 30.6665 15.3333C30.6665 17.3667 29.8588 19.3167 28.421 20.7545C26.9832 22.1923 25.0332 23 22.9998 23C20.9665 23 19.0165 22.1923 17.5787 20.7545C16.1409 19.3167 15.3332 17.3667 15.3332 15.3333C15.3332 13.3 16.1409 11.35 17.5787 9.91218C19.0165 8.4744 20.9665 7.66666 22.9998 7.66666ZM22.9998 26.8333C31.4715 26.8333 38.3332 30.2642 38.3332 34.5V38.3333H7.6665V34.5C7.6665 30.2642 14.5282 26.8333 22.9998 26.8333Z" fill="black"/>
</g>
</svg>
