<svg width="27" height="27" viewBox="0 0 27 27" fill="none" xmlns="http://www.w3.org/2000/svg">
<path d="M2.96332 19.8418C3.8081 18.9964 4.79517 18.3064 5.8793 17.8034C4.35043 16.5648 3.37506 14.6749 3.37506 12.5554C3.37506 8.81603 6.49354 5.74825 10.233 5.80562C13.9151 5.863 16.8817 8.86328 16.8817 12.5554C16.8817 14.6749 15.903 16.5648 14.3775 17.8034C15.4618 18.3061 16.449 18.9961 17.2935 19.8418C19.1362 21.6879 20.1825 24.1246 20.25 26.7233C20.2509 26.7593 20.2445 26.7951 20.2314 26.8287C20.2182 26.8622 20.1985 26.8928 20.1733 26.9186C20.1481 26.9443 20.1181 26.9648 20.0849 26.9788C20.0517 26.9928 20.016 27 19.98 27H18.09C17.9448 27 17.8233 26.8853 17.82 26.7401C17.7558 24.7827 16.9627 22.9501 15.5689 21.5597C14.8556 20.8426 14.0072 20.2742 13.0728 19.8872C12.1383 19.5002 11.1364 19.3024 10.125 19.3052C8.06966 19.3052 6.1358 20.1051 4.68118 21.5597C3.29069 22.9501 2.49757 24.7827 2.43007 26.7401C2.42669 26.8853 2.30519 27 2.16007 27H0.270084C0.234051 27 0.198381 26.9928 0.165174 26.9788C0.131969 26.9648 0.101902 26.9443 0.0767403 26.9186C0.0515766 26.8928 0.0318317 26.8622 0.0186672 26.8287C0.0055027 26.7951 -0.000816345 26.7593 8.58307e-05 26.7233C0.067585 24.1246 1.11383 21.6879 2.96332 19.8418ZM10.125 16.8753C11.2793 16.8753 12.366 16.4264 13.1794 15.6097C13.5876 15.2047 13.91 14.7217 14.1275 14.1894C14.3449 13.6571 14.4529 13.0865 14.445 12.5115C14.4349 11.4046 13.9927 10.3347 13.2199 9.54164C12.4099 8.71141 11.3265 8.24905 10.1689 8.23555C9.02478 8.22543 7.91441 8.67091 7.09767 9.47076C6.26067 10.2909 5.80167 11.3877 5.80167 12.5554C5.80167 13.7096 6.25055 14.793 7.06729 15.6097C7.46799 16.0123 7.94456 16.3315 8.46941 16.5487C8.99426 16.7659 9.55699 16.877 10.125 16.8753ZM18.5793 13.4464C18.6097 13.1528 18.6266 12.8558 18.6266 12.5554C18.6266 12.0188 18.576 11.4957 18.4815 10.9861C18.4578 10.8646 18.522 10.7397 18.6333 10.6891C19.0923 10.4832 19.5142 10.1997 19.8787 9.842C20.3082 9.42556 20.6462 8.92417 20.8711 8.36981C21.096 7.81546 21.2028 7.22031 21.1848 6.62235C21.1545 5.539 20.7191 4.50966 19.9597 3.73343C19.1261 2.87958 18.0056 2.41385 16.8142 2.42735C15.7376 2.43747 14.6981 2.85258 13.9117 3.58831C13.6451 3.83805 13.4156 4.1148 13.2233 4.41179C13.1558 4.51641 13.0241 4.56028 12.9094 4.51978C12.3154 4.31392 11.6876 4.16879 11.043 4.1013C10.854 4.08105 10.746 3.87855 10.8304 3.70981C11.9273 1.53975 14.1682 0.0412907 16.7602 0.000791878C20.5031 -0.0565814 23.6216 3.0112 23.6216 6.74722C23.6216 8.86666 22.6462 10.7566 21.1173 11.9952C22.1906 12.4913 23.1794 13.1764 24.0367 14.0336C25.8862 15.8797 26.9324 18.3164 26.9999 20.9184C27.0008 20.9544 26.9945 20.9903 26.9813 21.0238C26.9682 21.0574 26.9484 21.0879 26.9233 21.1137C26.8981 21.1395 26.868 21.16 26.8348 21.174C26.8016 21.188 26.7659 21.1952 26.7299 21.1952H24.8366C24.6914 21.1952 24.5699 21.0804 24.5666 20.9353C24.5024 18.9779 23.7093 17.1453 22.3154 15.7548C21.3232 14.7626 20.1082 14.0741 18.7818 13.74C18.6502 13.7063 18.5625 13.5814 18.5793 13.4464Z" fill="black" fill-opacity="0.4"/>
</svg>
